<svg xmlns="http://www.w3.org/2000/svg" width="64" height="64" viewBox="0 0 64 64" role="img" aria-label="PoloDeck shot clock">
  <rect x="2" y="2" width="60" height="60" rx="13" fill="#0a0e16" stroke="#f97316" stroke-width="3"/>
  <g fill="#ff7a18" opacity="0.12">
    <polygon points="14.5,19 16.5,17 26.5,17 28.5,19 26.5,21 16.5,21"/>
    <polygon points="28.5,19 30.5,21 30.5,30 28.5,32 26.5,30 26.5,21"/>
    <polygon points="28.5,32 30.5,34 30.5,43 28.5,45 26.5,43 26.5,34"/>
    <polygon points="14.5,45 16.5,43 26.5,43 28.5,45 26.5,47 16.5,47"/>
    <polygon points="14.5,32 16.5,34 16.5,43 14.5,45 12.5,43 12.5,34"/>
    <polygon points="14.5,19 16.5,21 16.5,30 14.5,32 12.5,30 12.5,21"/>
    <polygon points="14.5,32 16.5,30 26.5,30 28.5,32 26.5,34 16.5,34"/>
    <polygon points="35.5,19 37.5,17 47.5,17 49.5,19 47.5,21 37.5,21"/>
    <polygon points="49.5,19 51.5,21 51.5,30 49.5,32 47.5,30 47.5,21"/>
    <polygon points="49.5,32 51.5,34 51.5,43 49.5,45 47.5,43 47.5,34"/>
    <polygon points="35.5,45 37.5,43 47.5,43 49.5,45 47.5,47 37.5,47"/>
    <polygon points="35.5,32 37.5,34 37.5,43 35.5,45 33.5,43 33.5,34"/>
    <polygon points="35.5,19 37.5,21 37.5,30 35.5,32 33.5,30 33.5,21"/>
    <polygon points="35.5,32 37.5,30 47.5,30 49.5,32 47.5,34 37.5,34"/>
  </g>
  <g fill="#ff7a18">
    <polygon points="14.5,19 16.5,17 26.5,17 28.5,19 26.5,21 16.5,21"/>
    <polygon points="28.5,19 30.5,21 30.5,30 28.5,32 26.5,30 26.5,21"/>
    <polygon points="14.5,32 16.5,30 26.5,30 28.5,32 26.5,34 16.5,34"/>
    <polygon points="28.5,32 30.5,34 30.5,43 28.5,45 26.5,43 26.5,34"/>
    <polygon points="14.5,45 16.5,43 26.5,43 28.5,45 26.5,47 16.5,47"/>
    <polygon points="35.5,19 37.5,17 47.5,17 49.5,19 47.5,21 37.5,21"/>
    <polygon points="49.5,19 51.5,21 51.5,30 49.5,32 47.5,30 47.5,21"/>
    <polygon points="49.5,32 51.5,34 51.5,43 49.5,45 47.5,43 47.5,34"/>
    <polygon points="35.5,45 37.5,43 47.5,43 49.5,45 47.5,47 37.5,47"/>
    <polygon points="35.5,32 37.5,34 37.5,43 35.5,45 33.5,43 33.5,34"/>
    <polygon points="35.5,19 37.5,21 37.5,30 35.5,32 33.5,30 33.5,21"/>
  </g>
</svg>
